{"title":"Private Tropical # 6 - Tequila Bum Bum DVD","uid":7154014,"size":2131516267,"categoryP":"porn","categoryS":"movies","magnet":"?xt=urn:btih:3207da49c550bebe6246043556dcba4d222e394f&amp;dn=Private+Tropical+%23+6+-+Tequila+Bum+Bum+DVD&amp;tr=udp%3A%2F%2Ftracker.openbittorrent.com%3A80&amp;tr=udp%3A%2F%2Fopen.demonii.com%3A1337&amp;tr=udp%3A%2F%2Ftracker.coppersurfer.tk%3A6969&amp;tr=udp%3A%2F%2Fexodus.desync.com%3A6969","seeders":0,"leechers":1,"uploader":"tigris1968","files":13,"time":1333404269,"description":"Private Tropical # 6 - Tequila Bum Bum DVD\n\nPrivate\n\nCategory Feature, Straight, Foreign, Beach/Wet, Private's Private Tropical Series \n\nDirector Alessandro del Mar, Alexa Weix \n\nStarring Greg Centauro, Maria, Martina, George, Sebastian Barrio, Sandra Russo, Francesco Malcom, Frederica, Maya Gold\n\nHow would you react if your partner was to go on a trip without you? Do you think he would be faithful to you? Dive into this story that's full of shady affairs, swindlers and above all, lots of sex, shot in the heavenly beaches of the Reunion Islands, in French Polynesia.\n\nStudio Private \n\nDiscs 1 \n\nRelease Date Aug 01, 2003\n &lt;a href=&quot;\nhttp://bayimg.com/FanDPAaDM&quot; rel=&quot;nofollow&quot; target=&quot;_NEW&quot;&gt;\nhttp://bayimg.com/FanDPAaDM&lt;/a&gt;\n &lt;a href=&quot;\nhttp://bayimg.com/gandaAAdM&quot; rel=&quot;nofollow&quot; target=&quot;_NEW&quot;&gt;\nhttp://bayimg.com/gandaAAdM&lt;/a&gt;\n &lt;a href=&quot;\nhttp://bayimg.com/GandCaadm&quot; rel=&quot;nofollow&quot; target=&quot;_NEW&quot;&gt;\nhttp://bayimg.com/GandCaadm&lt;/a&gt;\n\n                                info\n\nGeneral\nComplete name                    : C:DownloadsPrivate Tropical # 6 - Tequila Bum Bum DVDdvdTequila Bum Bum.avi\nFormat                           : AVI\nFormat/Info                      : Audio Video Interleave\nFormat profile                   : OpenDML\nFile size                        : 1.91 GiB\nDuration                         : 1h 44mn\nOverall bit rate                 : 2 604 Kbps\nWriting application              : MEncoder SVN-r30881(20100311-gcc4.3.3)\nWriting library                  : MPlayer\n\nVideo\nID                               : 0\nFormat                           : MPEG-4 Visual\nFormat profile                   : Advanced Simple@L5\nFormat settings, BVOP            : 2\nFormat settings, QPel            : No\nFormat settings, GMC             : No warppoints\nFormat settings, Matrix          : Default (H.263)\nCodec ID                         : XVID\nCodec ID/Hint                    : XviD\nDuration                         : 1h 44mn\nBit rate                         : 2 399 Kbps\nWidth                            : 1 280 pixels\nHeight                           : 720 pixels\nDisplay aspect ratio             : 16:9\nFrame rate                       : 25.000 fps\nColor space                      : YUV\nChroma subsampling               : 4:2:0\nBit depth                        : 8 bits\nScan type                        : Progressive\nCompression mode                 : Lossy\nBits/(Pixel*Frame)               : 0.104\nStream size                      : 1.76 GiB (92%)\nWriting library                  : XviD 1.2.1 (UTC 2008-12-04)\n\nAudio\nID                               : 1\nFormat                           : MPEG Audio\nFormat version                   : Version 1\nFormat profile                   : Layer 3\nMode                             : Joint stereo\nCodec ID                         : 55\nCodec ID/Hint                    : MP3\nDuration                         : 1h 44mn\nBit rate mode                    : Constant\nBit rate                         : 192 Kbps\nChannel(s)                       : 2 channels\nSampling rate                    : 48.0 KHz\nCompression mode                 : Lossy\nDelay relative to video          : 40ms\nStream size                      : 3.63 MiB (0%)\nAlignment                        : Aligned on interleaves\nInterleave, duration             : 953 ms (23.81 video frames)\nInterleave, preload duration     : 504 ms\n\n","torrent":{"xt":"urn:btih:3207da49c550bebe6246043556dcba4d222e394f","amp;dn":"Private+Tropical+%23+6+-+Tequila+Bum+Bum+DVD","amp;tr":["udp%3A%2F%2Ftracker.openbittorrent.com%3A80","udp%3A%2F%2Fopen.demonii.com%3A1337","udp%3A%2F%2Ftracker.coppersurfer.tk%3A6969","udp%3A%2F%2Fexodus.desync.com%3A6969"],"infoHash":"3207da49c550bebe6246043556dcba4d222e394f","infoHashBuffer":{"type":"Buffer","data":[50,7,218,73,197,80,190,190,98,70,4,53,86,220,186,77,34,46,57,79]},"announce":[],"urlList":[]}}